<?xml version="1.0" encoding="UTF-8"?>
<svg xmlns="http://www.w3.org/2000/svg" xmlns:xlink="http://www.w3.org/1999/xlink" width="266px" height="239px" viewBox="0 0 266 239" version="1.1">
<g id="surface1">
<path style=" stroke:none;fill-rule:nonzero;fill:rgb(90.196079%,1.568628%,8.235294%);fill-opacity:1;" d="M 139.808594 237.804688 C 123.476562 236.246094 107.054688 231.332031 93.492188 223.953125 C 88.609375 221.296875 79.902344 215.445312 75.867188 212.109375 C 69.941406 207.210938 58.597656 193.769531 51.855469 183.65625 C 47.902344 177.726562 42.457031 167.480469 42.457031 165.96875 C 42.457031 165.160156 43 165.140625 64.261719 165.140625 L 86.0625 165.140625 L 89.183594 169.929688 C 90.902344 172.566406 92.742188 175.226562 93.277344 175.84375 C 93.808594 176.460938 95.722656 178.746094 97.53125 180.921875 C 103.960938 188.667969 114.121094 197.292969 122.867188 202.429688 C 131.746094 207.644531 140.582031 211.078125 150.53125 213.183594 C 155.511719 214.238281 156.679688 214.320312 167.039062 214.34375 C 178.960938 214.367188 181.835938 214.0625 191.269531 211.765625 C 202.980469 208.921875 210.648438 205.324219 220 198.28125 C 228.90625 191.578125 237.332031 181.839844 241.726562 173.179688 C 244.089844 168.515625 247.453125 158.890625 247.453125 156.789062 C 247.453125 155.898438 243.214844 155.753906 201.347656 155.238281 C 180.828125 154.984375 151.589844 154.597656 136.378906 154.382812 C 121.164062 154.167969 92.023438 153.78125 71.621094 153.527344 C 17.765625 152.855469 14.886719 152.648438 7.40625 148.945312 C 1.292969 145.921875 -0.625 141.957031 1.390625 136.539062 C 4.429688 128.390625 23.867188 111.671875 42.886719 100.847656 C 56.351562 93.1875 69.527344 87.558594 85.34375 82.714844 C 96.242188 79.378906 101.710938 78.535156 112.574219 78.515625 C 127.191406 78.484375 130.175781 79.207031 159.105469 89.71875 C 164.648438 91.734375 170.730469 93.9375 172.617188 94.609375 C 174.503906 95.285156 179.808594 97.195312 184.410156 98.851562 C 189.007812 100.507812 196.632812 103.253906 201.347656 104.949219 C 215.738281 110.121094 218.667969 111.179688 245.949219 121.046875 C 251.613281 123.09375 257.980469 125.441406 260.101562 126.261719 C 265.574219 128.375 268.667969 128.84375 207.566406 118.269531 C 196.835938 116.410156 181.6875 113.800781 173.902344 112.464844 C 166.117188 111.132812 156.664062 109.484375 152.886719 108.804688 C 140.84375 106.636719 134.894531 106.074219 123.726562 106.054688 C 114.679688 106.042969 112.835938 106.160156 108.503906 107.023438 C 102.75 108.171875 100.386719 109.089844 96.277344 111.757812 C 86.222656 118.289062 78.050781 126.582031 78.050781 130.253906 C 78.050781 132.945312 79.832031 133.910156 86.003906 134.566406 C 91.230469 135.121094 138.9375 138.816406 164.039062 140.613281 C 172.535156 141.222656 192.902344 142.730469 196.328125 143.003906 C 197.910156 143.132812 206.054688 143.714844 214.429688 144.304688 C 222.804688 144.890625 236.261719 145.851562 244.335938 146.441406 C 252.410156 147.027344 259.308594 147.507812 259.667969 147.507812 C 262.441406 147.507812 255.265625 169.261719 248.691406 180.769531 C 243 190.738281 237.773438 197.671875 230.316406 205.15625 C 213.265625 222.269531 189.988281 233.488281 163.824219 237.195312 C 158.203125 237.988281 145.214844 238.320312 139.808594 237.804688 Z M 253.671875 81.648438 C 250.40625 75.175781 250.21875 74.839844 247.710938 70.957031 C 242.480469 62.859375 234.222656 53.839844 226.652344 47.953125 C 224.53125 46.300781 222.726562 44.800781 222.648438 44.621094 C 222.570312 44.441406 222.28125 44.28125 222.007812 44.265625 C 221.730469 44.25 220.636719 43.582031 219.574219 42.777344 C 217.683594 41.347656 212.894531 38.59375 206.925781 35.5 C 199.367188 31.585938 189.964844 29.015625 178.40625 27.714844 C 160.882812 25.738281 142.941406 28.6875 128.015625 35.992188 C 126.128906 36.914062 124.101562 37.980469 123.511719 38.363281 C 122.921875 38.746094 121.625 39.511719 120.632812 40.0625 C 112.636719 44.507812 101.457031 54.835938 95.085938 63.652344 C 89.976562 70.722656 90.367188 70.34375 87.613281 70.933594 C 86.246094 71.226562 83.003906 71.910156 80.410156 72.453125 C 75.429688 73.496094 64.4375 75.886719 61.542969 76.554688 C 59.074219 77.121094 54.765625 78.070312 47.175781 79.710938 C 40.789062 81.09375 39.027344 81.148438 39.027344 79.976562 C 39.027344 78.40625 46.421875 63.410156 51.210938 55.261719 C 55.109375 48.632812 56.121094 47.0625 57.042969 46.226562 C 57.511719 45.800781 57.894531 45.296875 57.894531 45.109375 C 57.894531 43.839844 73.980469 27.714844 78.222656 24.726562 C 78.898438 24.253906 79.953125 23.460938 80.570312 22.960938 C 82.785156 21.175781 90.476562 16.324219 94.414062 14.230469 C 101.359375 10.535156 109.949219 7.074219 116.007812 5.535156 C 136.402344 0.351562 154.421875 -0.0234375 173.210938 4.34375 C 178.515625 5.578125 186.824219 8.792969 194.917969 12.746094 C 200.929688 15.6875 201.351562 15.917969 206.503906 19.109375 C 212.804688 23.011719 221.542969 29.996094 227.296875 35.734375 C 228.976562 37.40625 234.617188 43.683594 235.5625 44.929688 C 243.613281 55.539062 248.214844 63.449219 252.828125 74.617188 C 254.597656 78.898438 256.574219 85.367188 256.375 86.207031 C 256.300781 86.503906 255.085938 84.453125 253.671875 81.648438 Z M 253.671875 81.648438 "/>
<path style=" stroke:none;fill-rule:nonzero;fill:rgb(11.764706%,12.941177%,53.725493%);fill-opacity:1;" d="M 139.808594 237.804688 C 123.476562 236.246094 107.054688 231.332031 93.492188 223.953125 C 88.609375 221.296875 79.902344 215.445312 75.867188 212.109375 C 69.941406 207.210938 58.597656 193.769531 51.855469 183.65625 C 47.902344 177.726562 42.457031 167.480469 42.457031 165.96875 C 42.457031 165.160156 43 165.140625 64.261719 165.140625 L 86.0625 165.140625 L 89.183594 169.929688 C 90.902344 172.566406 92.742188 175.226562 93.277344 175.84375 C 93.808594 176.460938 95.722656 178.746094 97.53125 180.921875 C 103.960938 188.667969 114.121094 197.292969 122.867188 202.429688 C 131.746094 207.644531 140.582031 211.078125 150.53125 213.183594 C 155.511719 214.238281 156.679688 214.320312 167.039062 214.34375 C 178.960938 214.367188 181.835938 214.0625 191.269531 211.765625 C 202.980469 208.921875 210.648438 205.324219 220 198.28125 C 228.90625 191.578125 237.332031 181.839844 241.726562 173.179688 C 244.089844 168.515625 247.453125 158.890625 247.453125 156.789062 C 247.453125 155.898438 243.214844 155.753906 201.347656 155.238281 C 180.828125 154.984375 151.589844 154.597656 136.378906 154.382812 C 121.164062 154.167969 92.023438 153.78125 71.621094 153.527344 C 17.765625 152.855469 14.886719 152.648438 7.40625 148.945312 C 1.292969 145.921875 -0.625 141.957031 1.390625 136.539062 C 4.429688 128.390625 23.867188 111.671875 42.886719 100.847656 C 56.351562 93.1875 69.527344 87.558594 85.34375 82.714844 C 96.242188 79.378906 101.710938 78.535156 112.574219 78.515625 C 127.191406 78.484375 130.175781 79.207031 159.105469 89.71875 C 164.648438 91.734375 170.730469 93.9375 172.617188 94.609375 C 174.503906 95.285156 179.808594 97.195312 184.410156 98.851562 C 189.007812 100.507812 196.632812 103.253906 201.347656 104.949219 C 215.738281 110.121094 218.667969 111.179688 245.949219 121.046875 C 251.613281 123.09375 257.980469 125.441406 260.101562 126.261719 C 265.574219 128.375 268.667969 128.84375 207.566406 118.269531 C 196.835938 116.410156 181.6875 113.800781 173.902344 112.464844 C 166.117188 111.132812 156.664062 109.484375 152.886719 108.804688 C 140.84375 106.636719 134.894531 106.074219 123.726562 106.054688 C 114.679688 106.042969 112.835938 106.160156 108.503906 107.023438 C 102.75 108.171875 100.386719 109.089844 96.277344 111.757812 C 86.222656 118.289062 78.050781 126.582031 78.050781 130.253906 C 78.050781 132.945312 79.832031 133.910156 86.003906 134.566406 C 91.230469 135.121094 138.9375 138.816406 164.039062 140.613281 C 172.535156 141.222656 192.902344 142.730469 196.328125 143.003906 C 197.910156 143.132812 206.054688 143.714844 214.429688 144.304688 C 222.804688 144.890625 236.261719 145.851562 244.335938 146.441406 C 252.410156 147.027344 259.308594 147.507812 259.667969 147.507812 C 262.441406 147.507812 255.265625 169.261719 248.691406 180.769531 C 243 190.738281 237.773438 197.671875 230.316406 205.15625 C 213.265625 222.269531 189.988281 233.488281 163.824219 237.195312 C 158.203125 237.988281 145.214844 238.320312 139.808594 237.804688 Z M 139.808594 237.804688 "/>
</g>
</svg>
